<?xml version="1.0" encoding="utf-8"?>
<!-- Generator: Adobe Illustrator 19.0.1, SVG Export Plug-In . SVG Version: 6.00 Build 0)  -->
<svg version="1.1" id="icons" xmlns="http://www.w3.org/2000/svg" xmlns:xlink="http://www.w3.org/1999/xlink" x="0px" y="0px"
	 viewBox="0 0 69.8 67.8" style="enable-background:new 0 0 69.8 67.8;" xml:space="preserve">
<style type="text/css">
	.st0{fill:none;stroke:#363F40;stroke-width:2;stroke-linejoin:round;stroke-miterlimit:10;}
	.st1{fill:none;stroke:#009DDC;stroke-width:2;stroke-linejoin:round;stroke-miterlimit:10;}
</style>
<g>
	<path class="st0" d="M30.3,13H37c2.2,0,4.3,2.1,4.3,4.3v7l6,14V39h-6v10.3c0,2.2-2.1,3.7-4.3,3.7H19.3v10.3L9,53H7
		c-2.2,0-3.7-1.5-3.7-3.7v-32C3.3,15.1,4.8,13,7,13h17.3"/>
	<path class="st1" d="M44.3,45h5v10.3L59,45h2c2.2,0,4.3-1.5,4.3-3.7v-32C65.3,7.1,63.2,5,61,5H31c-2.2,0-3.7,2.1-3.7,4.3v9l-6,14
		V33h6v8.3c0,2.2,1.5,3.7,3.7,3.7h7.3"/>
	<line class="st1" x1="46.3" y1="13" x2="60.3" y2="13"/>
	<line class="st1" x1="46.3" y1="17" x2="60.3" y2="17"/>
	<line class="st1" x1="46.3" y1="21" x2="56.3" y2="21"/>
	<line class="st0" x1="8.3" y1="19" x2="20.3" y2="19"/>
	<line class="st0" x1="8.3" y1="23" x2="20.3" y2="23"/>
	<line class="st0" x1="8.3" y1="27" x2="16.3" y2="27"/>
</g>
</svg>
